<svg width="92" height="77" viewBox="0 0 92 77" fill="none" xmlns="http://www.w3.org/2000/svg">
<mask id="path-1-outside-1_1_193" maskUnits="userSpaceOnUse" x="-1.24736" y="-1.24421" width="95.6886" height="79.5734" fill="black">
<rect fill="white" x="-1.24736" y="-1.24421" width="95.6886" height="79.5734"/>
<path fill-rule="evenodd" clip-rule="evenodd" d="M38.7039 30.755C38.0235 17.368 48.2801 5.95753 61.6325 5.23639L61.7109 5.23228L61.8046 5.2277C75.1562 4.59982 86.5069 14.9088 87.1872 28.2923C87.1968 28.4804 87.2036 28.6692 87.2078 28.8587C87.2946 31.9802 86.7867 34.9866 85.7853 37.7659C80.8776 53.4933 64.9995 69.9332 64.9995 69.9332L64.9994 69.9316C64.9994 69.9316 47.5527 55.2013 41.0683 40.0596C39.7829 37.3869 38.969 34.4356 38.7398 31.3085C38.7252 31.1236 38.7132 30.9391 38.7039 30.755ZM18.2652 37.2304L32.7725 36.493C33.9387 36.4337 34.6819 35.468 34.1885 34.6547L26.0731 21.2753C25.4559 20.2571 23.5448 20.367 23.0551 21.4479L16.6615 35.5647C16.2737 36.4212 17.1101 37.2891 18.2652 37.2304ZM53.6018 69.8821L39.0944 70.6195C37.9394 70.6782 37.103 69.8103 37.4907 68.9538L43.8843 54.837C44.3741 53.7561 46.2852 53.6462 46.9024 54.6644L55.0178 68.0437C55.5112 68.857 54.768 69.8228 53.6018 69.8821ZM12.6672 32.4575C16.1705 32.2795 18.3511 30.1479 18.1693 26.5715C17.9864 22.9729 15.5764 21.0298 12.0507 21.209L5.81346 21.526C5.09017 21.5628 4.85429 21.8244 4.88998 22.5265L5.61027 36.6978C5.64596 37.3999 5.90715 37.6363 6.63044 37.5995L9.18269 37.4698C9.90599 37.433 10.1196 37.1726 10.0839 36.4704L9.88709 32.5988L12.6672 32.4575ZM10.2471 39.6507L10.8143 50.8106L16.2613 50.5337C16.9623 50.4981 17.2224 50.7121 17.2592 51.4366L17.3639 53.4969C17.3996 54.199 17.1637 54.4606 16.4627 54.4962L7.51233 54.9512C6.78903 54.9879 6.52785 54.7516 6.49216 54.0494L5.77186 39.8782C5.73617 39.176 5.97205 38.9144 6.69535 38.8777L9.2492 38.7479C9.97249 38.7111 10.2114 38.9486 10.2471 39.6507ZM21.5433 38.1231L18.8763 38.2586C18.1992 38.293 17.9844 38.5295 18.019 39.2094L18.7439 53.4716C18.7784 54.1498 19.0145 54.365 19.6932 54.3305L22.3602 54.1949C23.0373 54.1605 23.2521 53.924 23.2175 53.2442L22.4926 38.982C22.4581 38.3038 22.222 38.0886 21.5433 38.1231ZM20.0424 56.3255L20.7627 70.4967C20.7983 71.1989 20.5625 71.4605 19.8615 71.4961L17.3076 71.6259C16.8329 71.6501 16.5774 71.5271 16.3574 71.2199L12.6036 66.0315C11.5301 64.5197 11.092 63.4748 10.3783 61.4695L10.1983 61.4786L10.2546 61.6853C10.8047 63.7037 11.1172 64.8499 11.2408 67.2816L11.4283 70.9712C11.464 71.6734 11.2281 71.935 10.5048 71.9717L8.2234 72.0877C7.5001 72.1244 7.23891 71.8881 7.20322 71.1859L6.48293 57.0147C6.44724 56.3125 6.68312 56.051 7.40642 56.0142L10.0734 55.8786C10.5927 55.8522 10.8259 55.9764 11.0459 56.2836L15.0463 61.8914C15.8205 62.9817 16.1535 63.7283 16.5832 64.6913C16.7493 65.0636 16.9298 65.4683 17.1559 65.9377L17.3359 65.9286C16.4941 63.6338 16.1457 62.5619 16.0283 60.2527L15.8397 56.5407C15.804 55.8386 16.0176 55.5781 16.7409 55.5413L19.0462 55.4242C19.7472 55.3885 20.0083 55.6249 20.044 56.327L20.0424 56.3255ZM36.3582 69.704L35.6379 55.5328C35.601 54.8083 35.3399 54.572 34.6389 54.6076L32.0627 54.7385C31.3617 54.7742 31.1258 55.0358 31.1627 55.7603L31.417 60.7633L27.0326 60.9861L26.7783 55.9831C26.7414 55.2586 26.5026 55.0212 25.7793 55.0579L23.2254 55.1877C22.5021 55.2245 22.2662 55.4861 22.3031 56.2106L23.0234 70.3818C23.059 71.084 23.3202 71.3203 24.0435 71.2835L26.5974 71.1537C27.3207 71.117 27.5342 70.8565 27.4986 70.1544L27.2339 64.9471L31.6183 64.7242L31.883 69.9315C31.9186 70.6337 32.1798 70.87 32.8808 70.8344L35.457 70.7034C36.158 70.6678 36.3938 70.4062 36.3582 69.704Z"/>
</mask>
<path fill-rule="evenodd" clip-rule="evenodd" d="M38.7039 30.755C38.0235 17.368 48.2801 5.95753 61.6325 5.23639L61.7109 5.23228L61.8046 5.2277C75.1562 4.59982 86.5069 14.9088 87.1872 28.2923C87.1968 28.4804 87.2036 28.6692 87.2078 28.8587C87.2946 31.9802 86.7867 34.9866 85.7853 37.7659C80.8776 53.4933 64.9995 69.9332 64.9995 69.9332L64.9994 69.9316C64.9994 69.9316 47.5527 55.2013 41.0683 40.0596C39.7829 37.3869 38.969 34.4356 38.7398 31.3085C38.7252 31.1236 38.7132 30.9391 38.7039 30.755ZM18.2652 37.2304L32.7725 36.493C33.9387 36.4337 34.6819 35.468 34.1885 34.6547L26.0731 21.2753C25.4559 20.2571 23.5448 20.367 23.0551 21.4479L16.6615 35.5647C16.2737 36.4212 17.1101 37.2891 18.2652 37.2304ZM53.6018 69.8821L39.0944 70.6195C37.9394 70.6782 37.103 69.8103 37.4907 68.9538L43.8843 54.837C44.3741 53.7561 46.2852 53.6462 46.9024 54.6644L55.0178 68.0437C55.5112 68.857 54.768 69.8228 53.6018 69.8821ZM12.6672 32.4575C16.1705 32.2795 18.3511 30.1479 18.1693 26.5715C17.9864 22.9729 15.5764 21.0298 12.0507 21.209L5.81346 21.526C5.09017 21.5628 4.85429 21.8244 4.88998 22.5265L5.61027 36.6978C5.64596 37.3999 5.90715 37.6363 6.63044 37.5995L9.18269 37.4698C9.90599 37.433 10.1196 37.1726 10.0839 36.4704L9.88709 32.5988L12.6672 32.4575ZM10.2471 39.6507L10.8143 50.8106L16.2613 50.5337C16.9623 50.4981 17.2224 50.7121 17.2592 51.4366L17.3639 53.4969C17.3996 54.199 17.1637 54.4606 16.4627 54.4962L7.51233 54.9512C6.78903 54.9879 6.52785 54.7516 6.49216 54.0494L5.77186 39.8782C5.73617 39.176 5.97205 38.9144 6.69535 38.8777L9.2492 38.7479C9.97249 38.7111 10.2114 38.9486 10.2471 39.6507ZM21.5433 38.1231L18.8763 38.2586C18.1992 38.293 17.9844 38.5295 18.019 39.2094L18.7439 53.4716C18.7784 54.1498 19.0145 54.365 19.6932 54.3305L22.3602 54.1949C23.0373 54.1605 23.2521 53.924 23.2175 53.2442L22.4926 38.982C22.4581 38.3038 22.222 38.0886 21.5433 38.1231ZM20.0424 56.3255L20.7627 70.4967C20.7983 71.1989 20.5625 71.4605 19.8615 71.4961L17.3076 71.6259C16.8329 71.6501 16.5774 71.5271 16.3574 71.2199L12.6036 66.0315C11.5301 64.5197 11.092 63.4748 10.3783 61.4695L10.1983 61.4786L10.2546 61.6853C10.8047 63.7037 11.1172 64.8499 11.2408 67.2816L11.4283 70.9712C11.464 71.6734 11.2281 71.935 10.5048 71.9717L8.2234 72.0877C7.5001 72.1244 7.23891 71.8881 7.20322 71.1859L6.48293 57.0147C6.44724 56.3125 6.68312 56.051 7.40642 56.0142L10.0734 55.8786C10.5927 55.8522 10.8259 55.9764 11.0459 56.2836L15.0463 61.8914C15.8205 62.9817 16.1535 63.7283 16.5832 64.6913C16.7493 65.0636 16.9298 65.4683 17.1559 65.9377L17.3359 65.9286C16.4941 63.6338 16.1457 62.5619 16.0283 60.2527L15.8397 56.5407C15.804 55.8386 16.0176 55.5781 16.7409 55.5413L19.0462 55.4242C19.7472 55.3885 20.0083 55.6249 20.044 56.327L20.0424 56.3255ZM36.3582 69.704L35.6379 55.5328C35.601 54.8083 35.3399 54.572 34.6389 54.6076L32.0627 54.7385C31.3617 54.7742 31.1258 55.0358 31.1627 55.7603L31.417 60.7633L27.0326 60.9861L26.7783 55.9831C26.7414 55.2586 26.5026 55.0212 25.7793 55.0579L23.2254 55.1877C22.5021 55.2245 22.2662 55.4861 22.3031 56.2106L23.0234 70.3818C23.059 71.084 23.3202 71.3203 24.0435 71.2835L26.5974 71.1537C27.3207 71.117 27.5342 70.8565 27.4986 70.1544L27.2339 64.9471L31.6183 64.7242L31.883 69.9315C31.9186 70.6337 32.1798 70.87 32.8808 70.8344L35.457 70.7034C36.158 70.6678 36.3938 70.4062 36.3582 69.704Z" fill="white"/>
<path d="M61.6325 5.23639L61.4078 0.950634L61.401 0.951001L61.6325 5.23639ZM61.7109 5.23228L61.5011 0.945773C61.4962 0.946017 61.4912 0.946269 61.4862 0.94653L61.7109 5.23228ZM61.8046 5.2277L61.603 0.940788L61.5949 0.941186L61.8046 5.2277ZM87.2078 28.8587L82.9173 28.9543C82.9174 28.9622 82.9176 28.9701 82.9179 28.978L87.2078 28.8587ZM85.7853 37.7659L81.7478 36.311C81.7267 36.3694 81.707 36.4283 81.6885 36.4875L85.7853 37.7659ZM64.9995 69.9332L60.7128 70.1407C60.7956 71.8504 61.8863 73.3473 63.4884 73.95C65.0904 74.5527 66.8973 74.1458 68.0864 72.9146L64.9995 69.9332ZM64.9994 69.9316L69.286 69.724C69.2284 68.5338 68.6785 67.4212 67.768 66.6524L64.9994 69.9316ZM41.0683 40.0596L45.0134 38.3701C44.9888 38.3127 44.963 38.2558 44.9359 38.1995L41.0683 40.0596ZM38.7398 31.3085L43.02 30.9948C43.0194 30.9869 43.0188 30.979 43.0182 30.9711L38.7398 31.3085ZM34.1885 34.6547L30.5191 36.8804L30.5192 36.8805L34.1885 34.6547ZM26.0731 21.2753L22.4031 23.4999L22.4037 23.501L26.0731 21.2753ZM23.0551 21.4479L19.1459 19.6767L19.1457 19.6773L23.0551 21.4479ZM16.6615 35.5647L12.7521 33.7941L12.7518 33.7948L16.6615 35.5647ZM37.4907 68.9538L33.5814 67.1832L33.5811 67.1839L37.4907 68.9538ZM43.8843 54.837L39.9752 53.0658L39.9749 53.0664L43.8843 54.837ZM46.9024 54.6644L43.2323 56.889L43.233 56.8901L46.9024 54.6644ZM55.0178 68.0437L51.3484 70.2694L51.3485 70.2696L55.0178 68.0437ZM12.0507 21.209L11.8329 16.9229L12.0507 21.209ZM5.81346 21.526L6.03132 25.8121L5.81346 21.526ZM4.88998 22.5265L9.17608 22.3087L4.88998 22.5265ZM5.61027 36.6978L1.32416 36.9156L5.61027 36.6978ZM6.63044 37.5995L6.8483 41.8856L6.63044 37.5995ZM9.18269 37.4698L8.96484 33.1837L9.18269 37.4698ZM9.88709 32.5988L9.66924 28.3127C7.30209 28.433 5.48067 30.4495 5.60099 32.8167L9.88709 32.5988ZM10.8143 50.8106L6.52819 51.0284C6.64851 53.3956 8.665 55.217 11.0321 55.0967L10.8143 50.8106ZM17.2592 51.4366L21.5453 51.2187L17.2592 51.4366ZM17.3639 53.4969L13.0778 53.7147L17.3639 53.4969ZM16.4627 54.4962L16.2449 50.2101L16.4627 54.4962ZM7.51233 54.9512L7.73018 59.2373L7.51233 54.9512ZM6.49216 54.0494L2.20605 54.2673L6.49216 54.0494ZM5.77186 39.8782L10.058 39.6604L5.77186 39.8782ZM6.69535 38.8777L6.4775 34.5916L6.69535 38.8777ZM9.2492 38.7479L9.46705 43.034L9.2492 38.7479ZM18.019 39.2094L22.3051 38.9915L18.019 39.2094ZM18.7439 53.4716L14.4578 53.6894L18.7439 53.4716ZM19.6932 54.3305L19.4754 50.0444L19.6932 54.3305ZM22.3602 54.1949L22.578 58.4811L22.3602 54.1949ZM23.2175 53.2442L27.5036 53.0263L23.2175 53.2442ZM22.4926 38.982L18.2065 39.1998L22.4926 38.982ZM20.0424 56.3255L22.9181 53.1399C21.6298 51.9769 19.7679 51.7044 18.2003 52.4493C16.6327 53.1943 15.6682 54.81 15.7563 56.5434L20.0424 56.3255ZM19.8615 71.4961L20.0793 75.7822L19.8615 71.4961ZM17.3076 71.6259L17.0898 67.3398L17.3076 71.6259ZM16.3574 71.2199L19.8462 68.7206C19.8423 68.7152 19.8384 68.7097 19.8344 68.7042L16.3574 71.2199ZM12.6036 66.0315L9.10444 68.5163C9.11177 68.5266 9.11915 68.5369 9.12657 68.5472L12.6036 66.0315ZM10.3783 61.4695L14.4215 60.0305C13.7859 58.2445 12.0537 57.0871 10.1605 57.1834L10.3783 61.4695ZM10.1983 61.4786L9.98043 57.1925C8.68295 57.2585 7.48519 57.9086 6.72295 58.9606C5.96072 60.0127 5.71607 61.3534 6.05759 62.6068L10.1983 61.4786ZM10.2546 61.6853L6.1139 62.8135L6.11401 62.8139L10.2546 61.6853ZM10.5048 71.9717L10.287 67.6856L10.5048 71.9717ZM8.2234 72.0877L8.44125 76.3738L8.2234 72.0877ZM7.20322 71.1859L2.91712 71.4038L7.20322 71.1859ZM6.48293 57.0147L10.769 56.7969L6.48293 57.0147ZM11.0459 56.2836L14.5397 53.7913L14.5348 53.7844L11.0459 56.2836ZM15.0463 61.8914L18.5454 59.4066L18.5401 59.3991L15.0463 61.8914ZM16.5832 64.6913L20.5025 62.9428L20.5025 62.9428L16.5832 64.6913ZM17.1559 65.9377L13.2892 67.7998C14.0387 69.3562 15.6484 70.3115 17.3737 70.2238L17.1559 65.9377ZM17.3359 65.9286L17.5538 70.2147C18.9157 70.1455 20.1636 69.4331 20.9158 68.2956C21.6679 67.1581 21.8346 65.7308 21.365 64.4506L17.3359 65.9286ZM16.0283 60.2527L20.3145 60.0349L16.0283 60.2527ZM15.8397 56.5407L11.5536 56.7586L15.8397 56.5407ZM20.044 56.327L17.1683 59.5127C18.4566 60.6756 20.3185 60.9482 21.8861 60.2032C23.4537 59.4583 24.4182 57.8425 24.3301 56.1092L20.044 56.327ZM34.6389 54.6076L34.421 50.3215L34.6389 54.6076ZM32.0627 54.7385L32.2806 59.0246L32.0627 54.7385ZM31.1627 55.7603L35.4488 55.5424L31.1627 55.7603ZM31.417 60.7633L31.6348 65.0494C34.002 64.9291 35.8234 62.9126 35.7031 60.5454L31.417 60.7633ZM27.0326 60.9861L22.7465 61.204C22.8668 63.5711 24.8833 65.3926 27.2504 65.2722L27.0326 60.9861ZM25.7793 55.0579L25.5614 50.7718L25.7793 55.0579ZM23.2254 55.1877L23.4433 59.4738L23.2254 55.1877ZM22.3031 56.2106L26.5892 55.9927L22.3031 56.2106ZM23.0234 70.3818L18.7373 70.5997L23.0234 70.3818ZM24.0435 71.2835L24.2614 75.5697L24.0435 71.2835ZM26.5974 71.1537L26.3795 66.8676L26.5974 71.1537ZM27.4986 70.1544L23.2125 70.3722L27.4986 70.1544ZM27.2339 64.9471L27.016 60.661C24.6489 60.7813 22.8275 62.7978 22.9478 65.1649L27.2339 64.9471ZM31.6183 64.7242L35.9044 64.5064C35.7841 62.1392 33.7676 60.3178 31.4004 60.4381L31.6183 64.7242ZM31.883 69.9315L36.1691 69.7136L31.883 69.9315ZM32.8808 70.8344L33.0987 75.1205L32.8808 70.8344ZM35.457 70.7034L35.2391 66.4173L35.457 70.7034ZM61.401 0.951001C45.6794 1.8001 33.6177 15.2319 34.4178 30.9729L42.99 30.5371C42.4292 19.5041 50.8809 10.115 61.8639 9.52179L61.401 0.951001ZM61.4862 0.94653L61.4078 0.950639L61.8571 9.52215L61.9355 9.51804L61.4862 0.94653ZM61.5949 0.941186L61.5011 0.945773L61.9206 9.5188L62.0144 9.51421L61.5949 0.941186ZM91.4733 28.0744C90.6735 12.3383 77.3239 0.201502 61.603 0.940796L62.0062 9.5146C72.9885 8.99815 82.3404 17.4794 82.9011 28.5102L91.4733 28.0744ZM91.4984 28.7631C91.4933 28.5336 91.485 28.304 91.4733 28.0744L82.9011 28.5102C82.9085 28.6568 82.9139 28.8049 82.9173 28.9543L91.4984 28.7631ZM89.8228 39.2207C91.0028 35.946 91.5998 32.4061 91.4978 28.7394L82.9179 28.978C82.9895 31.5542 82.5707 34.0273 81.7478 36.311L89.8228 39.2207ZM64.9995 69.9332C68.0864 72.9146 68.0869 72.9141 68.0875 72.9135C68.0878 72.9132 68.0885 72.9125 68.089 72.9119C68.0901 72.9108 68.0915 72.9094 68.0931 72.9077C68.0963 72.9044 68.1004 72.9001 68.1055 72.8948C68.1157 72.8841 68.1297 72.8695 68.1475 72.851C68.1829 72.814 68.2331 72.7612 68.2972 72.6934C68.4255 72.5577 68.6098 72.3614 68.8434 72.1086C69.3104 71.6032 69.9754 70.8712 70.7854 69.9465C72.4035 68.0992 74.6106 65.4706 76.9782 62.3317C81.6508 56.1371 87.2054 47.6222 89.8821 39.0443L81.6885 36.4875C79.4575 43.637 74.6192 51.2057 70.1257 57.1629C67.9104 60.0999 65.8412 62.5643 64.3288 64.291C63.5736 65.1532 62.9598 65.8285 62.5393 66.2835C62.3291 66.511 62.1674 66.6832 62.0607 66.796C62.0074 66.8524 61.9678 66.894 61.9429 66.9201C61.9304 66.9332 61.9215 66.9424 61.9165 66.9477C61.9139 66.9503 61.9123 66.952 61.9116 66.9527C61.9113 66.953 61.9112 66.9531 61.9114 66.9529C61.9114 66.9529 61.9117 66.9526 61.9118 66.9525C61.9121 66.9522 61.9125 66.9517 64.9995 69.9332ZM60.7128 70.1392L60.7128 70.1407L69.2861 69.7256L69.286 69.724L60.7128 70.1392ZM37.1232 41.749C40.6594 50.0065 47.0458 57.9081 52.3192 63.5925C54.9913 66.4728 57.4516 68.8619 59.2472 70.5341C60.1461 71.3712 60.8813 72.0313 61.3967 72.4863C61.6545 72.7139 61.8575 72.8904 61.9988 73.0122C62.0695 73.0732 62.1247 73.1205 62.1636 73.1537C62.1831 73.1703 62.1985 73.1834 62.2097 73.193C62.2154 73.1977 62.2199 73.2016 62.2234 73.2046C62.2252 73.206 62.2267 73.2073 62.2279 73.2083C62.2285 73.2089 62.2292 73.2095 62.2295 73.2097C62.2302 73.2103 62.2308 73.2108 64.9994 69.9316C67.768 66.6524 67.7684 66.6528 67.7688 66.6531C67.7689 66.6532 67.7692 66.6534 67.7693 66.6535C67.7694 66.6536 67.7693 66.6536 67.769 66.6533C67.7683 66.6526 67.7665 66.6512 67.7637 66.6488C67.7581 66.644 67.7484 66.6358 67.7346 66.6241C67.7072 66.6006 67.6637 66.5634 67.6049 66.5127C67.4875 66.4114 67.3094 66.2566 67.0774 66.0519C66.6134 65.6422 65.9349 65.0332 65.0968 64.2527C63.4185 62.6898 61.1119 60.4499 58.6117 57.7549C53.5407 52.2887 47.9616 45.2543 45.0134 38.3701L37.1232 41.749ZM34.4597 31.6221C34.7288 35.2955 35.6862 38.7705 37.2007 41.9196L44.9359 38.1995C43.8797 36.0033 43.2091 33.5758 43.02 30.9948L34.4597 31.6221ZM34.4178 30.9729C34.4292 31.1975 34.4438 31.4219 34.4615 31.6459L43.0182 30.9711C43.0067 30.8253 42.9973 30.6807 42.99 30.5371L34.4178 30.9729ZM32.5547 32.2069L18.0473 32.9443L18.483 41.5165L32.9904 40.7791L32.5547 32.2069ZM30.5192 36.8805C30.1796 36.3207 29.9994 35.6219 30.065 34.8922C30.1282 34.1901 30.4015 33.6291 30.7025 33.2383C31.2883 32.4775 32.0391 32.2331 32.5547 32.2069L32.9904 40.7791C34.6722 40.6936 36.3776 39.9368 37.5033 38.4749C38.7059 36.913 39.1438 34.5488 37.8578 32.4288L30.5192 36.8805ZM22.4037 23.501L30.5191 36.8804L37.8579 32.429L29.7425 19.0496L22.4037 23.501ZM26.9642 23.2191C26.3332 24.6116 25.1351 24.8377 24.7619 24.8591C24.3857 24.8806 23.1861 24.7917 22.4031 23.4999L29.7432 19.0507C28.343 16.7407 25.8792 16.1976 24.2707 16.2898C22.6651 16.3819 20.2666 17.2033 19.1459 19.6767L26.9642 23.2191ZM20.5709 37.3353L26.9644 23.2185L19.1457 19.6773L12.7521 33.7941L20.5709 37.3353ZM18.0473 32.9443C18.5573 32.9184 19.3185 33.081 19.9759 33.7637C20.3138 34.1145 20.6446 34.6349 20.7872 35.3177C20.9352 36.0272 20.8412 36.7381 20.5712 37.3346L12.7518 33.7948C11.7361 36.0386 12.442 38.3144 13.7936 39.7178C15.0611 41.0339 16.818 41.6011 18.483 41.5165L18.0473 32.9443ZM39.3123 74.9056L53.8196 74.1682L53.3839 65.596L38.8766 66.3334L39.3123 74.9056ZM33.5811 67.1839C32.5653 69.4277 33.2713 71.7035 34.6229 73.1069C35.8904 74.4229 37.6473 74.9902 39.3123 74.9056L38.8766 66.3334C39.3865 66.3074 40.1477 66.4701 40.8052 67.1528C41.1431 67.5036 41.4739 68.024 41.6164 68.7068C41.7645 69.4163 41.6705 70.1272 41.4004 70.7237L33.5811 67.1839ZM39.9749 53.0664L33.5814 67.1832L41.4001 70.7244L47.7937 56.6076L39.9749 53.0664ZM50.5725 52.4398C49.1723 50.1298 46.7085 49.5867 45.1 49.6789C43.4944 49.7709 41.0959 50.5924 39.9752 53.0658L47.7934 56.6082C47.1625 58.0007 45.9644 58.2267 45.5912 58.2481C45.2149 58.2697 44.0153 58.1807 43.2323 56.889L50.5725 52.4398ZM58.6872 65.818L50.5718 52.4387L43.233 56.8901L51.3484 70.2694L58.6872 65.818ZM53.8196 74.1682C55.5015 74.0827 57.2069 73.3258 58.3325 71.864C59.5352 70.3021 59.9731 67.9379 58.6871 65.8179L51.3485 70.2696C51.0089 69.7098 50.8287 69.011 50.8943 68.2813C50.9574 67.5792 51.2308 67.0182 51.5317 66.6274C52.1176 65.8665 52.8683 65.6222 53.3839 65.596L53.8196 74.1682ZM13.8832 26.7894C13.9056 27.2288 13.8489 27.4928 13.8048 27.626C13.764 27.7493 13.7232 27.797 13.7015 27.8196C13.6771 27.8451 13.3965 28.1233 12.4493 28.1714L12.885 36.7436C15.4412 36.6137 18.0026 35.737 19.8988 33.7581C21.8293 31.7435 22.5942 29.0829 22.4554 26.3537L13.8832 26.7894ZM12.2686 25.4951C13.2098 25.4473 13.529 25.6964 13.5716 25.7329C13.5811 25.741 13.8397 25.9338 13.8832 26.7894L22.4554 26.3537C22.316 23.6106 21.2781 21.0325 19.1555 19.2142C17.066 17.4244 14.4173 16.7915 11.8329 16.9229L12.2686 25.4951ZM6.03132 25.8121L12.2686 25.4951L11.8329 16.9229L5.59561 17.2399L6.03132 25.8121ZM9.17608 22.3087C9.17834 22.3531 9.19275 22.6363 9.10058 23.0383C8.99854 23.4833 8.75766 24.1031 8.22767 24.68C7.70095 25.2534 7.11386 25.5393 6.7035 25.6747C6.33021 25.7979 6.0642 25.8105 6.03132 25.8121L5.59561 17.2399C4.96252 17.2721 3.24216 17.4195 1.90653 18.8735C0.550643 20.3495 0.571006 22.0978 0.603871 22.7444L9.17608 22.3087ZM9.89637 36.4799L9.17608 22.3087L0.603871 22.7444L1.32416 36.9156L9.89637 36.4799ZM6.41259 33.3134C6.44547 33.3117 6.71139 33.2973 7.09524 33.3819C7.51721 33.475 8.13026 33.6999 8.71241 34.217C9.29817 34.7372 9.60065 35.3293 9.74728 35.7617C9.87973 36.1523 9.89412 36.4355 9.89637 36.4799L1.32416 36.9156C1.35703 37.5622 1.51403 39.3035 3.0126 40.6345C4.48876 41.9456 6.2152 41.9178 6.8483 41.8856L6.41259 33.3134ZM8.96484 33.1837L6.41259 33.3134L6.8483 41.8856L9.40055 41.7559L8.96484 33.1837ZM5.79777 36.6882C5.79678 36.6687 5.78096 36.4064 5.86201 36.0252C5.9517 35.6033 6.17427 34.9742 6.70384 34.3757C7.23627 33.774 7.84205 33.4709 8.27151 33.3271C8.65809 33.1977 8.93459 33.1852 8.96484 33.1837L9.40055 41.7559C10.0213 41.7243 11.7901 41.5801 13.132 40.0635C14.4543 38.5691 14.3988 36.819 14.37 36.2525L5.79777 36.6882ZM5.60099 32.8167L5.79777 36.6882L14.37 36.2525L14.1732 32.381L5.60099 32.8167ZM12.4493 28.1714L9.66924 28.3127L10.1049 36.8849L12.885 36.7436L12.4493 28.1714ZM15.1004 50.5927L14.5332 39.4329L5.96096 39.8686L6.52819 51.0284L15.1004 50.5927ZM16.0435 46.2476L10.5964 46.5245L11.0321 55.0967L16.4792 54.8198L16.0435 46.2476ZM21.5453 51.2187C21.5139 50.6001 21.3708 48.8334 19.8587 47.4908C18.3642 46.1639 16.6118 46.2187 16.0435 46.2476L16.4792 54.8198C16.4587 54.8209 16.1948 54.8367 15.8118 54.755C15.3878 54.6644 14.758 54.4403 14.16 53.9094C13.5595 53.3762 13.258 52.7708 13.1154 52.3435C12.9869 51.9585 12.9746 51.6836 12.9731 51.6545L21.5453 51.2187ZM21.65 53.279L21.5453 51.2187L12.9731 51.6545L13.0778 53.7147L21.65 53.279ZM16.6806 58.7823C17.3314 58.7493 19.0507 58.5911 20.3768 57.1205C21.701 55.652 21.683 53.9277 21.65 53.279L13.0778 53.7147C13.0755 53.6691 13.0617 53.3912 13.1511 52.9961C13.2496 52.5613 13.4829 51.9486 14.0024 51.3725C14.5222 50.7961 15.1085 50.5003 15.5331 50.3571C15.9187 50.2271 16.1981 50.2125 16.2449 50.2101L16.6806 58.7823ZM7.73018 59.2373L16.6806 58.7823L16.2449 50.2101L7.29448 50.6651L7.73018 59.2373ZM2.20605 54.2673C2.23891 54.9139 2.39592 56.6552 3.89449 57.9862C5.37066 59.2973 7.0971 59.2695 7.73018 59.2373L7.29448 50.6651C7.32735 50.6634 7.59327 50.649 7.97712 50.7336C8.39908 50.8267 9.01214 51.0516 9.59429 51.5686C10.1801 52.0889 10.4825 52.681 10.6292 53.1134C10.7616 53.5039 10.776 53.7872 10.7783 53.8316L2.20605 54.2673ZM1.48576 40.0961L2.20605 54.2673L10.7783 53.8316L10.058 39.6604L1.48576 40.0961ZM6.4775 34.5916C5.8444 34.6238 4.12405 34.7712 2.78842 36.2251C1.43253 37.7012 1.45289 39.4495 1.48576 40.0961L10.058 39.6604C10.0602 39.7048 10.0746 39.988 9.98247 40.39C9.88043 40.835 9.63955 41.4547 9.10955 42.0317C8.58283 42.6051 7.99574 42.891 7.58538 43.0264C7.2121 43.1495 6.94608 43.1621 6.9132 43.1638L6.4775 34.5916ZM9.03134 34.4618L6.4775 34.5916L6.9132 43.1638L9.46705 43.034L9.03134 34.4618ZM14.5332 39.4329C14.5044 38.8664 14.3822 37.1197 12.9151 35.7671C11.4264 34.3944 9.65205 34.4302 9.03134 34.4618L9.46705 43.034C9.4368 43.0355 9.16045 43.0511 8.76275 42.9616C8.32093 42.8621 7.68753 42.622 7.09684 42.0774C6.50932 41.5357 6.22411 40.9324 6.0921 40.5217C5.97281 40.1507 5.96195 39.8881 5.96096 39.8686L14.5332 39.4329ZM19.0942 42.5447L21.7611 42.4092L21.3254 33.837L18.6585 33.9725L19.0942 42.5447ZM22.3051 38.9915C22.3068 39.0243 22.3222 39.3002 22.2358 39.6952C22.1403 40.1325 21.907 40.7691 21.366 41.3682C20.8248 41.9675 20.2148 42.2645 19.7887 42.4042C19.4039 42.5303 19.1272 42.543 19.0942 42.5447L18.6585 33.9725C18.0851 34.0017 16.3371 34.1302 14.9956 35.6157C13.6548 37.1005 13.7037 38.8519 13.7329 39.4272L22.3051 38.9915ZM23.03 53.2537L22.3051 38.9915L13.7329 39.4272L14.4578 53.6894L23.03 53.2537ZM19.4754 50.0444C19.5091 50.0427 19.7866 50.0273 20.1833 50.1143C20.6228 50.2108 21.26 50.4456 21.8586 50.988C22.4566 51.5298 22.752 52.1394 22.8906 52.5635C23.0158 52.9466 23.0284 53.2217 23.03 53.2537L14.4578 53.6894C14.4868 54.2608 14.6143 56.0067 16.0954 57.3486C17.5801 58.6939 19.3338 58.646 19.9111 58.6166L19.4754 50.0444ZM22.1423 49.9088L19.4754 50.0444L19.9111 58.6166L22.578 58.4811L22.1423 49.9088ZM18.9314 53.462C18.9298 53.4293 18.9144 53.1534 19.0007 52.7584C19.0963 52.3211 19.3295 51.6845 19.8706 51.0853C20.4117 50.4861 21.0217 50.189 21.4479 50.0493C21.8326 49.9232 22.1093 49.9105 22.1423 49.9088L22.578 58.4811C23.1514 58.4519 24.8994 58.3234 26.2409 56.8379C27.5817 55.353 27.5329 53.6016 27.5036 53.0263L18.9314 53.462ZM18.2065 39.1998L18.9314 53.462L27.5036 53.0263L26.7787 38.7641L18.2065 39.1998ZM21.7611 42.4092C21.7274 42.4109 21.4499 42.4263 21.0532 42.3392C20.6137 42.2428 19.9765 42.0079 19.3779 41.4656C18.7799 40.9237 18.4845 40.3142 18.3459 39.8901C18.2207 39.507 18.2081 39.2318 18.2065 39.1998L26.7787 38.7641C26.7497 38.1927 26.6222 36.4469 25.1412 35.1049C23.6564 33.7596 21.9027 33.8076 21.3254 33.837L21.7611 42.4092ZM25.0488 70.2789L24.3285 56.1077L15.7563 56.5434L16.4766 70.7146L25.0488 70.2789ZM20.0793 75.7822C20.7302 75.7492 22.4494 75.591 23.7755 74.1204C25.0997 72.6519 25.0817 70.9276 25.0488 70.2789L16.4766 70.7146C16.4742 70.669 16.4604 70.3911 16.5499 69.996C16.6484 69.5612 16.8816 68.9485 17.4011 68.3724C17.9209 67.796 18.5073 67.5002 18.9319 67.357C19.3174 67.227 19.5969 67.2124 19.6436 67.21L20.0793 75.7822ZM17.5255 75.9121L20.0793 75.7822L19.6436 67.21L17.0898 67.3398L17.5255 75.9121ZM12.8685 73.7191C13.2951 74.3146 13.9732 75.021 15.0124 75.477C15.9924 75.9071 16.9096 75.9434 17.5255 75.9121L17.0898 67.3398C17.2309 67.3327 17.783 67.3195 18.4616 67.6173C19.1993 67.941 19.6397 68.4324 19.8462 68.7206L12.8685 73.7191ZM9.12657 68.5472L12.8803 73.7355L19.8344 68.7042L16.0806 63.5159L9.12657 68.5472ZM6.3351 62.9084C7.1018 65.0627 7.69694 66.5342 9.10444 68.5163L16.1028 63.5467C15.3632 62.5052 15.0822 61.8868 14.4215 60.0305L6.3351 62.9084ZM10.4161 65.7647L10.5962 65.7556L10.1605 57.1834L9.98043 57.1925L10.4161 65.7647ZM14.3953 60.5571L14.339 60.3504L6.05759 62.6068L6.1139 62.8135L14.3953 60.5571ZM15.5269 67.0637C15.3797 64.1681 14.9712 62.6699 14.3952 60.5567L6.11401 62.8139C6.63833 64.7375 6.85464 65.5316 6.95466 67.4994L15.5269 67.0637ZM15.7144 70.7533L15.5269 67.0637L6.95466 67.4994L7.14219 71.189L15.7144 70.7533ZM10.7227 76.2578C11.3557 76.2256 13.0761 76.0783 14.4117 74.6243C15.7676 73.1482 15.7473 71.3999 15.7144 70.7533L7.14219 71.189C7.13993 71.1446 7.12552 70.8614 7.21769 70.4594C7.31973 70.0144 7.56062 69.3947 8.09061 68.8177C8.61734 68.2443 9.20443 67.9584 9.61479 67.823C9.98807 67.6999 10.2541 67.6873 10.287 67.6856L10.7227 76.2578ZM8.44125 76.3738L10.7227 76.2578L10.287 67.6856L8.00554 67.8016L8.44125 76.3738ZM2.91712 71.4038C2.94998 72.0504 3.10698 73.7917 4.60556 75.1227C6.08173 76.4338 7.80817 76.406 8.44125 76.3738L8.00554 67.8016C8.03842 67.7999 8.30434 67.7855 8.68818 67.8701C9.11015 67.9632 9.72321 68.1881 10.3054 68.7051C10.8911 69.2254 11.1936 69.8175 11.3402 70.2499C11.4727 70.6404 11.4871 70.9237 11.4893 70.9681L2.91712 71.4038ZM2.19682 57.2326L2.91712 71.4038L11.4893 70.9681L10.769 56.7969L2.19682 57.2326ZM7.18856 51.7281C6.55547 51.7603 4.83511 51.9077 3.49949 53.3617C2.1436 54.8377 2.16396 56.586 2.19682 57.2326L10.769 56.7969C10.7713 56.8413 10.7857 57.1245 10.6935 57.5265C10.5915 57.9715 10.3506 58.5912 9.82062 59.1682C9.2939 59.7416 8.70681 60.0275 8.29645 60.1629C7.92316 60.286 7.65715 60.2986 7.62427 60.3003L7.18856 51.7281ZM9.85552 51.5925L7.18856 51.7281L7.62427 60.3003L10.2912 60.1647L9.85552 51.5925ZM14.5348 53.7844C14.1555 53.2549 13.4903 52.5061 12.3965 52.0261C11.3829 51.5814 10.438 51.5629 9.85552 51.5925L10.2912 60.1647C10.2281 60.168 9.65943 60.1984 8.9473 59.8859C8.15495 59.5382 7.71635 59.0051 7.55708 58.7828L14.5348 53.7844ZM18.5401 59.3991L14.5397 53.7913L7.55214 58.7759L11.5525 64.3837L18.5401 59.3991ZM20.5025 62.9428C20.0486 61.9254 19.5759 60.8578 18.5454 59.4066L11.5471 64.3762C12.065 65.1056 12.2585 65.5312 12.6639 66.4398L20.5025 62.9428ZM21.0225 64.0757C20.8267 63.6691 20.6692 63.3164 20.5025 62.9428L12.6639 66.4398C12.8294 66.8109 13.0329 67.2676 13.2892 67.7998L21.0225 64.0757ZM17.1181 61.6425L16.938 61.6516L17.3737 70.2238L17.5538 70.2147L17.1181 61.6425ZM11.7422 60.4706C11.8916 63.4087 12.4054 64.9493 13.3068 67.4066L21.365 64.4506C20.5828 62.3183 20.3999 61.7151 20.3145 60.0349L11.7422 60.4706ZM11.5536 56.7586L11.7422 60.4706L20.3145 60.0349L20.1258 56.3229L11.5536 56.7586ZM16.523 51.2552C15.9023 51.2868 14.1335 51.431 12.7916 52.9476C11.4692 54.4421 11.5248 56.1921 11.5536 56.7586L20.1258 56.3229C20.1268 56.3424 20.1426 56.6047 20.0615 56.986C19.9718 57.4079 19.7493 58.037 19.2197 58.6354C18.6873 59.2372 18.0815 59.5403 17.652 59.684C17.2655 59.8134 16.989 59.8259 16.9587 59.8274L16.523 51.2552ZM18.8283 51.1381L16.523 51.2552L16.9587 59.8274L19.264 59.7103L18.8283 51.1381ZM24.3301 56.1092C24.2972 55.4605 24.1402 53.7433 22.674 52.4166C21.2056 51.088 19.4792 51.105 18.8283 51.1381L19.264 59.7103C19.2173 59.7127 18.9378 59.7265 18.541 59.6362C18.1041 59.5369 17.4908 59.302 16.9152 58.7813C16.34 58.2608 16.0458 57.6749 15.9037 57.2523C15.7747 56.8684 15.7603 56.5905 15.7579 56.5449L24.3301 56.1092ZM17.1666 59.5112L17.1683 59.5127L22.9198 53.1414L22.9181 53.1399L17.1666 59.5112ZM31.3518 55.7507L32.072 69.9219L40.6443 69.4862L39.924 55.315L31.3518 55.7507ZM34.8567 58.8937C34.8112 58.896 34.5263 58.9104 34.1226 58.8175C33.6754 58.7145 33.0552 58.472 32.4788 57.9408C31.9067 57.4135 31.6224 56.8269 31.4881 56.4186C31.3658 56.0469 31.3534 55.7825 31.3518 55.7507L39.924 55.315C39.8919 54.6839 39.7456 52.9656 38.296 51.6295C36.8202 50.2692 35.0698 50.2885 34.421 50.3215L34.8567 58.8937ZM32.2806 59.0246L34.8567 58.8937L34.421 50.3215L31.8449 50.4524L32.2806 59.0246ZM35.4488 55.5424C35.4504 55.5742 35.4648 55.8385 35.3809 56.2207C35.2887 56.6405 35.0653 57.2529 34.5496 57.8356C34.0301 58.4225 33.4376 58.7266 33.0031 58.8744C32.6109 59.0078 32.3261 59.0223 32.2806 59.0246L31.8449 50.4524C31.1961 50.4854 29.4527 50.6437 28.1224 52.1466C26.8158 53.6228 26.8445 55.347 26.8766 55.9781L35.4488 55.5424ZM35.7031 60.5454L35.4488 55.5424L26.8766 55.9781L27.1308 60.9811L35.7031 60.5454ZM27.2504 65.2722L31.6348 65.0494L31.1991 56.4772L26.8147 56.7L27.2504 65.2722ZM22.4922 56.201L22.7465 61.204L31.3187 60.7683L31.0644 55.7653L22.4922 56.201ZM25.9971 59.344C25.9681 59.3455 25.6864 59.3616 25.2818 59.2695C24.8295 59.1664 24.1892 58.9185 23.5981 58.3632C23.0144 57.815 22.7391 57.2115 22.6145 56.8156C22.5017 56.4569 22.4925 56.2075 22.4922 56.201L31.0644 55.7653C31.0364 55.2145 30.9232 53.4677 29.4743 52.1068C27.9785 50.702 26.1798 50.7404 25.5614 50.7718L25.9971 59.344ZM23.4433 59.4738L25.9971 59.344L25.5614 50.7718L23.0076 50.9016L23.4433 59.4738ZM26.5892 55.9927C26.5907 56.0233 26.6057 56.2929 26.5193 56.6818C26.4237 57.1117 26.1929 57.7314 25.6664 58.3152C25.1396 58.8994 24.5461 59.1935 24.126 59.3333C23.7463 59.4596 23.4749 59.4722 23.4433 59.4738L23.0076 50.9016C22.377 50.9337 20.6323 51.0809 19.292 52.5672C17.9537 54.0514 17.985 55.7999 18.017 56.4284L26.5892 55.9927ZM27.3095 70.164L26.5892 55.9927L18.017 56.4284L18.7373 70.5997L27.3095 70.164ZM23.8257 66.9974C23.8586 66.9958 24.1245 66.9813 24.5083 67.066C24.9303 67.159 25.5433 67.384 26.1255 67.901C26.7113 68.4213 27.0137 69.0134 27.1604 69.4458C27.2928 69.8363 27.3072 70.1195 27.3095 70.164L18.7373 70.5997C18.7701 71.2462 18.9271 72.9876 20.4257 74.3186C21.9019 75.6296 23.6283 75.6018 24.2614 75.5697L23.8257 66.9974ZM26.3795 66.8676L23.8257 66.9974L24.2614 75.5697L26.8152 75.4398L26.3795 66.8676ZM23.2125 70.3722C23.2115 70.3527 23.1956 70.0904 23.2767 69.7091C23.3664 69.2872 23.589 68.6581 24.1185 68.0596C24.651 67.4579 25.2568 67.1548 25.6862 67.0111C26.0728 66.8817 26.3493 66.8692 26.3795 66.8676L26.8152 75.4398C27.4359 75.4083 29.2047 75.2641 30.5466 73.7475C31.869 72.253 31.8135 70.503 31.7847 69.9365L23.2125 70.3722ZM22.9478 65.1649L23.2125 70.3722L31.7847 69.9365L31.52 64.7292L22.9478 65.1649ZM31.4004 60.4381L27.016 60.661L27.4517 69.2332L31.8361 69.0103L31.4004 60.4381ZM36.1691 69.7136L35.9044 64.5064L27.3322 64.9421L27.5968 70.1494L36.1691 69.7136ZM32.663 66.5483C32.7097 66.5459 32.9892 66.5321 33.386 66.6223C33.8229 66.7217 34.4362 66.9565 35.0118 67.4773C35.587 67.9977 35.8812 68.5836 36.0233 69.0062C36.1523 69.3902 36.1667 69.668 36.1691 69.7136L27.5968 70.1494C27.6298 70.7981 27.7868 72.5153 29.253 73.842C30.7214 75.1705 32.4478 75.1536 33.0987 75.1205L32.663 66.5483ZM35.2391 66.4173L32.663 66.5483L33.0987 75.1205L35.6748 74.9895L35.2391 66.4173ZM32.072 69.9219C32.0697 69.8763 32.0559 69.5984 32.1454 69.2033C32.2439 68.7685 32.4771 68.1558 32.9966 67.5797C33.5164 67.0033 34.1028 66.7074 34.5274 66.5643C34.9129 66.4343 35.1924 66.4197 35.2391 66.4173L35.6748 74.9895C36.3257 74.9565 38.0449 74.7983 39.371 73.3277C40.6952 71.8592 40.6772 70.1349 40.6443 69.4862L32.072 69.9219Z" fill="white" mask="url(#path-1-outside-1_1_193)"/>
</svg>
